HIERARCHY
ROOT joint_Root
{
	OFFSET 0.0 0.0 0.0
	CHANNELS 6 Xposition Yposition Zposition Zrotation Xrotation Yrotation 
	JOINT Hips
	{
		OFFSET -17.1583 93.1646 452.98
		CHANNELS 6 Xposition Yposition Zposition Zrotation Xrotation Yrotation 
		JOINT Spine
		{
			OFFSET 15.7357 0.0 0.0
			CHANNELS 6 Xposition Yposition Zposition Zrotation Xrotation Yrotation 
			JOINT Chest
			{
				OFFSET 8.98455 -0.406207 0.0
				CHANNELS 6 Xposition Yposition Zposition Zrotation Xrotation Yrotation 
				JOINT Neck
				{
					OFFSET 16.3773 0.0 0.0
					CHANNELS 6 Xposition Yposition Zposition Zrotation Xrotation Yrotation 
					JOINT Head
					{
						OFFSET 6.45672 0.0 0.0
						CHANNELS 6 Xposition Yposition Zposition Zrotation Xrotation Yrotation 
						End Site
						{
							OFFSET 0.0 0.0 0.0
						}
					}
				}
				JOINT Shoulder_L
				{
					OFFSET 12.9942 -0.242716 4.98039
					CHANNELS 6 Xposition Yposition Zposition Zrotation Xrotation Yrotation 
					JOINT UpperArm_L
					{
						OFFSET 5.34809 0.0 0.0
						CHANNELS 6 Xposition Yposition Zposition Zrotation Xrotation Yrotation 
						JOINT LowerArm_L
						{
							OFFSET 24.3286 1.87007e-05 0.0
							CHANNELS 6 Xposition Yposition Zposition Zrotation Xrotation Yrotation 
							JOINT Hand_L
							{
								OFFSET 22.2916 0.0 0.0
								CHANNELS 6 Xposition Yposition Zposition Zrotation Xrotation Yrotation 
								End Site
								{
									OFFSET 0.0 0.0 0.0
								}
							}
						}
					}
				}
				JOINT Shoulder_R
				{
					OFFSET 12.9945 -0.242716 -4.98039
					CHANNELS 6 Xposition Yposition Zposition Zrotation Xrotation Yrotation 
					JOINT UpperArm_R
					{
						OFFSET -5.34813 0.0 0.0
						CHANNELS 6 Xposition Yposition Zposition Zrotation Xrotation Yrotation 
						JOINT LowerArm_R
						{
							OFFSET -24.3289 0.000322201 0.0
							CHANNELS 6 Xposition Yposition Zposition Zrotation Xrotation Yrotation 
							JOINT Hand_R
							{
								OFFSET -22.2915 -0.000108084 0.0
								CHANNELS 6 Xposition Yposition Zposition Zrotation Xrotation Yrotation 
								End Site
								{
									OFFSET 0.0 0.0 0.0
								}
							}
						}
					}
				}
			}
		}
		JOINT UpperLeg_L
		{
			OFFSET -2.19248 -6.46944 0.0
			CHANNELS 6 Xposition Yposition Zposition Zrotation Xrotation Yrotation 
			JOINT LowerLeg_L
			{
				OFFSET 39.0811 0.0 -1.23785e-05
				CHANNELS 6 Xposition Yposition Zposition Zrotation Xrotation Yrotation 
				JOINT Foot_L
				{
					OFFSET 40.9854 0.0 -1.26872e-05
					CHANNELS 6 Xposition Yposition Zposition Zrotation Xrotation Yrotation 
					JOINT Toes_L
					{
						OFFSET 11.7543 0.0 0.0
						CHANNELS 6 Xposition Yposition Zposition Zrotation Xrotation Yrotation 
						End Site
						{
							OFFSET 0.0 0.0 0.0
						}
					}
				}
			}
		}
		JOINT UpperLeg_R
		{
			OFFSET -2.19251 6.46944 0.0
			CHANNELS 6 Xposition Yposition Zposition Zrotation Xrotation Yrotation 
			JOINT LowerLeg_R
			{
				OFFSET -39.0811 -0.00228153 -0.0401928
				CHANNELS 6 Xposition Yposition Zposition Zrotation Xrotation Yrotation 
				JOINT Foot_R
				{
					OFFSET -40.9854 0.0 0.0
					CHANNELS 6 Xposition Yposition Zposition Zrotation Xrotation Yrotation 
					JOINT Toes_R
					{
						OFFSET -11.7543 0.0 0.0
						CHANNELS 6 Xposition Yposition Zposition Zrotation Xrotation Yrotation 
						End Site
						{
							OFFSET 0.0 0.0 0.0
						}
					}
				}
			}
		}
	}
}
MOTION
Frames:	7
Frame Time:	0.0333333
0.000000 0.000000 0.000000 0.000000 0.000000 -0.000000 -3.471960 91.988300 2.589640 84.813800 0.457917 0.684478 15.735700 0.000005 -0.000001 116.489000 88.589100 -116.067000 8.984550 -0.406207 -0.000000 -5.245470 1.209280 0.899706 16.377300 -0.000001 -0.000001 10.525900 -4.449210 -7.733540 6.456720 -0.000001 -0.000000 7.819670 -11.516200 -9.493580 12.994200 -0.242716 4.980390 -92.359200 6.326650 -69.501200 5.348090 -0.000007 -0.000001 -76.302400 6.534370 -11.701900 24.328600 0.000019 0.000005 42.996200 -43.940000 -126.657000 22.291600 -0.000001 0.000005 40.001800 4.940150 8.566900 12.994500 -0.242716 -4.980390 88.415200 5.032880 -72.496600 -5.348130 -0.000001 -0.000004 -73.943400 34.041100 -1.123560 -24.328900 0.000322 -0.000009 2.856630 8.501490 -18.657500 -22.291500 -0.000108 -0.000004 -0.520758 5.224370 2.101240 -2.192480 -6.469440 -0.000000 -172.285000 1.943720 -3.951880 39.081100 -0.000007 -0.000012 0.213619 -0.446531 25.566600 40.985400 -0.000006 -0.000013 -2.188420 7.927750 -75.673900 11.754300 -0.000000 0.000003 -0.000307 0.172634 -9.574580 -2.192510 6.469440 -0.000001 -171.329000 7.853590 -176.882000 -39.081100 -0.002282 -0.040193 0.016022 -0.053909 13.245100 -40.985400 0.000008 0.000006 0.175018 4.533270 -70.430700 -11.754300 -0.000006 -0.000006 -0.011578 0.282740 -5.083020
0.000000 0.000000 0.000000 0.000000 0.000000 -0.000000 -3.442120 91.989600 2.565910 84.778600 0.419661 0.747412 15.735700 0.000005 -0.000001 115.675000 88.565600 -115.222000 8.984550 -0.406207 -0.000000 -5.185660 1.190360 0.961197 16.377300 -0.000001 -0.000001 10.564100 -4.437900 -7.726110 6.456720 -0.000001 -0.000000 7.721170 -11.457700 -9.542440 12.994200 -0.242716 4.980390 -92.369000 6.354130 -69.504200 5.348090 -0.000007 -0.000001 -76.328700 6.421000 -11.673600 24.328600 0.000019 0.000005 43.191600 -43.954300 -126.477000 22.291600 -0.000001 0.000005 40.154400 4.930250 8.768780 12.994500 -0.242716 -4.980390 88.408300 5.036920 -72.438000 -5.348130 -0.000001 -0.000004 -73.900000 33.995500 -1.142510 -24.328900 0.000322 -0.000009 2.863930 8.529430 -18.645300 -22.291500 -0.000108 -0.000004 -0.541390 5.223450 2.124740 -2.192480 -6.469440 -0.000000 -172.303000 1.876970 -3.894710 39.081100 -0.000007 -0.000012 0.226646 -0.473191 25.593500 40.985400 -0.000006 -0.000013 -1.953220 7.891940 -75.826000 11.754300 -0.000000 0.000003 -0.000572 0.176753 -9.407260 -2.192510 6.469440 -0.000001 -171.306000 7.663790 -176.848000 -39.081100 -0.002282 -0.040193 0.015186 -0.050248 13.273000 -40.985400 0.000008 0.000006 0.095996 4.412950 -70.405200 -11.754300 -0.000006 -0.000006 -0.011265 0.280526 -5.173680
0.000000 0.000000 0.000000 0.000000 0.000000 -0.000000 -3.404620 91.990400 2.530360 84.805800 0.413811 0.704342 15.735700 0.000005 -0.000001 114.962000 88.571500 -114.504000 8.984550 -0.406207 -0.000000 -5.180950 1.152590 0.970066 16.377300 -0.000001 -0.000001 10.520700 -4.429730 -7.700520 6.456720 -0.000001 -0.000000 7.684230 -11.423800 -9.597600 12.994200 -0.242716 4.980390 -92.377200 6.377460 -69.507400 5.348090 -0.000007 -0.000001 -76.300700 6.345210 -11.695600 24.328600 0.000019 0.000005 43.109500 -43.850900 -126.504000 22.291600 -0.000001 0.000005 40.072400 4.931200 8.749510 12.994500 -0.242716 -4.980390 88.403200 5.046520 -72.415900 -5.348130 -0.000001 -0.000004 -73.879300 33.903300 -1.170220 -24.328900 0.000322 -0.000009 2.885310 8.621680 -18.589400 -22.291500 -0.000108 -0.000004 -0.392256 5.225310 2.076610 -2.192480 -6.469440 -0.000000 -172.366000 1.884390 -3.947870 39.081100 -0.000007 -0.000012 0.229589 -0.479861 25.569000 40.985400 -0.000006 -0.000013 -1.769080 7.846680 -75.772900 11.754300 -0.000000 0.000003 -0.000201 0.170940 -9.643400 -2.192510 6.469440 -0.000001 -171.291000 7.535900 -176.953000 -39.081100 -0.002282 -0.040193 0.018376 -0.063447 13.338000 -40.985400 0.000008 0.000006 0.204561 4.191500 -70.461800 -11.754300 -0.000006 -0.000006 -0.011230 0.280278 -5.183840
0.000000 0.000000 0.000000 0.000000 0.000000 -0.000000 -3.378270 91.999400 2.512280 84.822500 0.457611 0.751498 15.735700 0.000005 -0.000001 114.044000 88.550500 -113.580000 8.984550 -0.406207 -0.000000 -5.123570 1.127640 0.980758 16.377300 -0.000001 -0.000001 10.555600 -4.441900 -7.700620 6.456720 -0.000001 -0.000000 7.592390 -11.438300 -9.602000 12.994200 -0.242716 4.980390 -92.376000 6.386380 -69.543400 5.348090 -0.000007 -0.000001 -76.295400 6.262270 -11.695000 24.328600 0.000019 0.000005 43.221600 -43.803100 -126.373000 22.291600 -0.000001 0.000005 39.991200 4.927600 8.822590 12.994500 -0.242716 -4.980390 88.387000 5.084770 -72.373700 -5.348130 -0.000001 -0.000004 -73.835100 33.855000 -1.162020 -24.328900 0.000322 -0.000009 2.888680 8.649030 -18.555200 -22.291500 -0.000108 -0.000004 -0.416682 5.227320 2.024800 -2.192480 -6.469440 -0.000000 -172.415000 1.897460 -3.887060 39.081100 -0.000007 -0.000012 0.232501 -0.486887 25.526000 40.985400 -0.000006 -0.000013 -1.666710 7.838690 -75.848000 11.754300 -0.000000 0.000003 -0.000373 0.173681 -9.532070 -2.192510 6.469440 -0.000001 -171.319000 7.435670 -176.905000 -39.081100 -0.002282 -0.040193 0.017386 -0.059362 13.318700 -40.985400 0.000008 0.000006 0.127686 4.099040 -70.467800 -11.754300 -0.000006 -0.000006 -0.011337 0.281040 -5.152620
0.000000 0.000000 0.000000 0.000000 0.000000 -0.000000 -3.353240 92.005100 2.482310 84.844500 0.525399 0.716423 15.735700 0.000005 -0.000001 113.335000 88.541900 -112.861000 8.984550 -0.406207 -0.000000 -5.093290 1.100730 0.997855 16.377300 -0.000001 -0.000001 10.506300 -4.477940 -7.688020 6.456720 -0.000001 -0.000000 7.577890 -11.471100 -9.626340 12.994200 -0.242716 4.980390 -92.393000 6.437090 -69.557400 5.348090 -0.000007 -0.000001 -76.288600 6.145240 -11.765100 24.328600 0.000019 0.000005 43.347900 -43.726400 -126.214000 22.291600 -0.000001 0.000005 39.815300 4.927190 8.830770 12.994500 -0.242716 -4.980390 88.382700 5.089370 -72.344700 -5.348130 -0.000001 -0.000004 -73.794100 33.844200 -1.210790 -24.328900 0.000322 -0.000009 2.898280 8.696100 -18.519600 -22.291500 -0.000108 -0.000004 -0.462654 5.227250 2.026660 -2.192480 -6.469440 -0.000000 -172.463000 1.973120 -3.953770 39.081100 -0.000007 -0.000012 0.237123 -0.496994 25.506900 40.985400 -0.000006 -0.000013 -1.600190 7.781900 -75.794000 11.754300 -0.000000 0.000003 -0.000369 0.173621 -9.534510 -2.192510 6.469440 -0.000001 -171.319000 7.370450 -176.976000 -39.081100 -0.002282 -0.040193 0.018036 -0.062106 13.318500 -40.985400 0.000008 0.000006 0.195474 3.923620 -70.445500 -11.754300 -0.000006 -0.000006 -0.010963 0.278364 -5.262160
0.000000 0.000000 0.000000 0.000000 0.000000 -0.000000 -3.326790 92.020200 2.452700 84.878400 0.560896 0.727072 15.735700 0.000005 -0.000001 112.479000 88.530100 -112.004000 8.984550 -0.406207 -0.000000 -5.054280 1.069720 0.998749 16.377300 -0.000001 -0.000001 10.491600 -4.523870 -7.647070 6.456720 -0.000001 -0.000000 7.520950 -11.483200 -9.697830 12.994200 -0.242716 4.980390 -92.399700 6.441660 -69.517600 5.348090 -0.000007 -0.000001 -76.282100 6.047570 -11.725000 24.328600 0.000019 0.000005 43.189500 -43.559600 -126.282000 22.291600 -0.000001 0.000005 39.739100 4.924540 8.884210 12.994500 -0.242716 -4.980390 88.380100 5.093810 -72.332800 -5.348130 -0.000001 -0.000004 -73.803600 33.824600 -1.222780 -24.328900 0.000322 -0.000009 2.877870 8.662110 -18.464600 -22.291500 -0.000108 -0.000004 -0.530471 5.223430 2.124940 -2.192480 -6.469440 -0.000000 -172.495000 1.933270 -3.931770 39.081100 -0.000007 -0.000012 0.232168 -0.488141 25.436900 40.985400 -0.000006 -0.000013 -1.612860 7.896200 -75.775700 11.754300 -0.000000 0.000003 -0.000430 0.174569 -9.496000 -2.192510 6.469440 -0.000001 -171.355000 7.300720 -176.943000 -39.081100 -0.002282 -0.040193 0.017356 -0.059554 13.249500 -40.985400 0.000008 0.000006 0.175207 3.819220 -70.454600 -11.754300 -0.000006 -0.000006 -0.011238 0.280333 -5.181560
0.000000 0.000000 0.000000 0.000000 0.000000 -0.000000 -3.306880 92.021900 2.423140 84.872200 0.608495 0.719056 15.735700 0.000005 -0.000001 112.256000 88.507500 -111.759000 8.984550 -0.406207 -0.000000 -5.008270 1.074070 1.041520 16.377300 -0.000001 -0.000001 10.502800 -4.562130 -7.624640 6.456720 -0.000001 -0.000000 7.441600 -11.528600 -9.745080 12.994200 -0.242716 4.980390 -92.407100 6.478850 -69.567600 5.348090 -0.000007 -0.000001 -76.294300 5.835250 -11.715600 24.328600 0.000019 0.000005 42.972700 -43.388100 -126.403000 22.291600 -0.000001 0.000005 39.649800 4.932970 8.713440 12.994500 -0.242716 -4.980390 88.379400 5.095150 -72.329900 -5.348130 -0.000001 -0.000004 -73.776600 33.844900 -1.261620 -24.328900 0.000322 -0.000009 2.869290 8.656450 -18.424300 -22.291500 -0.000108 -0.000004 -0.447150 5.223260 2.129230 -2.192480 -6.469440 -0.000000 -172.512000 1.950810 -3.984360 39.081100 -0.000007 -0.000012 0.237445 -0.498925 25.450800 40.985400 -0.000006 -0.000013 -1.520170 7.885630 -75.710400 11.754300 -0.000000 0.000003 -0.000297 0.172483 -9.580730 -2.192510 6.469440 -0.000001 -171.336000 7.262420 -176.998000 -39.081100 -0.002282 -0.040193 0.018456 -0.064126 13.269100 -40.985400 0.000008 0.000006 0.206800 3.725140 -70.406300 -11.754300 -0.000006 -0.000006 -0.010880 0.277771 -5.286440
